<svg xmlns="http://www.w3.org/2000/svg" viewBox="0 0 531.89 363.69"><defs><style>.cls-1{fill:#4c4c4c;}.cls-2{fill:#727272;}.cls-3{fill:#282828;}.cls-4{fill:#b7b7b7;}.cls-5{fill:#8e8d8d;}.cls-6{fill:#707070;}.cls-7{fill:#f3f3f3;}.cls-8{fill:#e5e5e5;}.cls-9{fill:#ccc;}.cls-10{fill:none;stroke:#545454;stroke-linecap:round;stroke-miterlimit:10;stroke-width:2px;stroke-dasharray:0 4;}</style></defs><title>blackbox-testing-approaches</title><g id="Ebene_2" data-name="Ebene 2"><g id="Ebene_1-2" data-name="Ebene 1"><polygon class="cls-1" points="83.64 192.21 125.38 213.68 167.29 234.99 125.38 256.47 83.64 277.94 41.91 256.47 0 234.99 41.91 213.68 83.64 192.21"/><polygon class="cls-2" points="135.86 270.61 135.86 251.23 114.9 261.88 114.9 281.26 126.43 267.12 135.86 270.61"/><polygon class="cls-3" points="83.64 277.94 83.64 363.69 167.29 320.9 167.29 234.99 135.86 251.23 135.16 251.58 135.16 270.44 126.43 267.12 114.9 281.26 114.9 261.88 83.64 277.94"/><polygon points="83.64 363.69 83.64 277.94 41.91 256.47 0 234.99 0 320.9 83.64 363.69"/><polygon class="cls-2" points="31.43 218.92 114.9 261.88 135.16 251.58 135.86 251.23 52.39 208.27 41.91 213.68 31.43 218.92"/><polygon class="cls-4" points="265.94 192.21 307.68 213.68 349.59 234.99 307.68 256.47 265.94 277.94 224.21 256.47 182.3 234.99 224.21 213.68 265.94 192.21"/><polygon class="cls-2" points="318.16 270.61 318.16 251.23 297.2 261.88 297.2 281.26 308.73 267.12 318.16 270.61"/><polygon class="cls-5" points="265.94 277.94 265.94 363.69 349.59 320.9 349.59 234.99 318.16 251.23 317.46 251.58 317.46 270.44 308.73 267.12 297.2 281.26 297.2 261.88 265.94 277.94"/><polygon class="cls-6" points="265.94 363.69 265.94 277.94 224.21 256.47 182.3 234.99 182.3 320.9 265.94 363.69"/><polygon class="cls-2" points="213.73 218.92 297.2 261.88 317.46 251.58 318.16 251.23 234.69 208.27 224.21 213.68 213.73 218.92"/><polygon class="cls-7" points="448.24 192.21 489.98 213.68 531.89 234.99 489.98 256.47 448.24 277.94 406.51 256.47 364.6 234.99 406.51 213.68 448.24 192.21"/><polygon class="cls-2" points="500.45 270.61 500.45 251.23 479.5 261.88 479.5 281.26 491.02 267.12 500.45 270.61"/><polygon class="cls-8" points="448.24 277.94 448.24 363.69 531.89 320.9 531.89 234.99 500.45 251.23 499.75 251.58 499.75 270.44 491.02 267.12 479.5 281.26 479.5 261.88 448.24 277.94"/><polygon class="cls-9" points="448.24 363.69 448.24 277.94 406.51 256.47 364.6 234.99 364.6 320.9 448.24 363.69"/><polygon class="cls-2" points="396.03 218.92 479.5 261.88 499.75 251.58 500.45 251.23 416.98 208.27 406.51 213.68 396.03 218.92"/><path d="M128.51,3.6H121V2.16h16.77V3.6h-7.56V25.88h-1.65Z"/><path d="M138.48,17.28c0-5.65,3.67-9.11,7.52-9.11,4.1,0,6.62,2.92,6.62,8a8.1,8.1,0,0,1-.07,1.3H140.1c.07,4.35,2.63,7.49,6.51,7.49a7.73,7.73,0,0,0,4.65-1.55l.64,1.22a9.58,9.58,0,0,1-5.43,1.69C142,26.31,138.48,22.93,138.48,17.28Zm12.63-1.12c0-4.42-2-6.62-5.07-6.62s-5.58,2.48-5.94,6.62Z"/><path d="M155.15,23.94l.93-1.19a8,8,0,0,0,5.51,2.2c2.7,0,4.1-1.59,4.1-3.42,0-2.16-2.23-3.1-4.21-3.82-2.63-.94-5.51-2-5.51-4.93,0-2.52,2-4.61,5.58-4.61a8,8,0,0,1,4.93,1.8l-.86,1.12a6.51,6.51,0,0,0-4.14-1.55c-2.66,0-3.89,1.55-3.89,3.13,0,2,2,2.74,4.07,3.49,2.7,1,5.65,1.91,5.65,5.29,0,2.59-2.09,4.86-5.83,4.86A10,10,0,0,1,155.15,23.94Z"/><path d="M171.56,21.09V10h-2.7V8.75l2.74-.15.21-5h1.37v5h5V10h-5V21.24c0,2.19.54,3.67,2.92,3.67a5.78,5.78,0,0,0,2.16-.54l.43,1.3a9.63,9.63,0,0,1-2.81.64C172.53,26.31,171.56,24.19,171.56,21.09Z"/><path d="M181.79,3a1.44,1.44,0,0,1,2.88,0,1.44,1.44,0,0,1-2.88,0Zm.61,5.58H184V25.88H182.4Z"/><path d="M190.64,8.6H192l.14,2.67h.11c1.76-1.77,3.56-3.1,5.94-3.1,3.56,0,5.22,2.16,5.22,6.62V25.88h-1.58V15c0-3.67-1.16-5.4-4-5.4-2.06,0-3.53,1.08-5.66,3.24v13h-1.58Z"/><path d="M208.35,29.41a5.47,5.47,0,0,1,2.56-4.18v-.14a3.07,3.07,0,0,1-1.51-2.77,4.05,4.05,0,0,1,1.87-3.17V19a6.47,6.47,0,0,1-2.16-4.76,5.94,5.94,0,0,1,6.08-6.08,6.31,6.31,0,0,1,2.27.43h5.87V9.94h-4a5.76,5.76,0,0,1,1.9,4.35,5.9,5.9,0,0,1-6,6.08,6,6,0,0,1-2.88-.72,3.15,3.15,0,0,0-1.4,2.49c0,1.26.72,2.27,3.31,2.27h3.71c3.89,0,5.69,1.22,5.69,4,0,3-3.21,5.83-8.18,5.83C211.09,34.2,208.35,32.32,208.35,29.41ZM222,28.54c0-1.9-1.41-2.62-4-2.62h-3.71a11.21,11.21,0,0,1-2.16-.29,4.51,4.51,0,0,0-2.26,3.63c0,2.16,2.08,3.64,5.75,3.64C219.51,32.9,222,30.7,222,28.54Zm-2.34-14.29a4.49,4.49,0,1,0-9,0,4.5,4.5,0,1,0,9,0Z"/><path d="M239.85,2.16h1.66l8.35,23.72h-1.73l-2.77-8.13H236l-2.8,8.13H231.5Zm-3.38,14.18h8.42l-1.51-4.42c-1-2.81-1.8-5.3-2.63-8.21h-.14c-.83,2.91-1.66,5.4-2.63,8.21Z"/><path d="M253.46,8.6h1.37l.14,2.16h.11c1.69-1.33,3.74-2.59,5.87-2.59,4.6,0,6.91,3.46,6.91,8.82,0,5.87-3.57,9.32-7.63,9.32A9.16,9.16,0,0,1,255,24.19v9.5h-1.58ZM266.17,17c0-4.25-1.52-7.41-5.47-7.41-1.73,0-3.57,1-5.66,2.84V22.68a8.47,8.47,0,0,0,5.12,2.23C263.65,24.91,266.17,21.67,266.17,17Z"/><path d="M273,8.6h1.37l.15,2.16h.1c1.7-1.33,3.75-2.59,5.87-2.59,4.61,0,6.91,3.46,6.91,8.82,0,5.87-3.56,9.32-7.63,9.32a9.13,9.13,0,0,1-5.18-2.12v9.5H273ZM285.75,17c0-4.25-1.51-7.41-5.47-7.41-1.73,0-3.56,1-5.65,2.84V22.68a8.47,8.47,0,0,0,5.11,2.23C283.23,24.91,285.75,21.67,285.75,17Z"/><path d="M292.63,8.6H294l.14,3.21h.11c1.15-2.13,2.84-3.64,4.89-3.64a3.55,3.55,0,0,1,1.73.36L300.51,10a3.71,3.71,0,0,0-1.58-.29c-1.55,0-3.39,1.19-4.72,4.43V25.88h-1.58Z"/><path d="M302.24,17.28c0-5.8,3.6-9.11,7.74-9.11s7.77,3.31,7.77,9.11-3.6,9-7.77,9S302.24,23,302.24,17.28Zm13.86,0c0-4.57-2.63-7.7-6.12-7.7s-6.08,3.13-6.08,7.7,2.59,7.63,6.08,7.63S316.1,21.81,316.1,17.28Z"/><path d="M321.18,21.56c0-3.81,3.45-5.65,11.15-6.51,0-2.63-.68-5.47-4.1-5.47a9.79,9.79,0,0,0-5.51,2L322,10.4a11.73,11.73,0,0,1,6.45-2.23c4.06,0,5.47,2.95,5.47,6.66v11h-1.37l-.14-2.23h-.11c-1.77,1.4-3.85,2.66-6.12,2.66C323.44,26.31,321.18,24.84,321.18,21.56Zm11.15.58V16.27c-7.12.83-9.54,2.48-9.54,5.22,0,2.48,1.7,3.46,3.68,3.46S330.17,24,332.33,22.14Z"/><path d="M338.63,17.28c0-5.8,3.68-9.11,7.89-9.11a7.13,7.13,0,0,1,5.07,2.12l-.93,1.12a5.91,5.91,0,0,0-4.11-1.83c-3.52,0-6.26,3.13-6.26,7.7s2.48,7.63,6.26,7.63a7,7,0,0,0,4.61-2L352,24a8.29,8.29,0,0,1-5.51,2.27C342,26.31,338.63,23,338.63,17.28Z"/><path d="M356.24,0h1.58V11.3c1.8-1.8,3.6-3.13,6-3.13,3.56,0,5.22,2.16,5.22,6.62V25.88h-1.59V15c0-3.67-1.15-5.4-4-5.4-2.05,0-3.52,1.08-5.65,3.24v13h-1.58Z"/><path d="M373.81,17.28c0-5.65,3.67-9.11,7.52-9.11,4.1,0,6.62,2.92,6.62,8a8.1,8.1,0,0,1-.07,1.3H375.43c.07,4.35,2.62,7.49,6.51,7.49a7.67,7.67,0,0,0,4.64-1.55l.65,1.22a9.6,9.6,0,0,1-5.43,1.69C377.37,26.31,373.81,22.93,373.81,17.28Zm12.63-1.12c0-4.42-2-6.62-5.07-6.62s-5.58,2.48-5.94,6.62Z"/><path d="M390.47,23.94l.94-1.19a8,8,0,0,0,5.51,2.2c2.7,0,4.1-1.59,4.1-3.42,0-2.16-2.23-3.1-4.21-3.82-2.63-.94-5.51-2-5.51-4.93,0-2.52,2-4.61,5.58-4.61a8,8,0,0,1,4.93,1.8L401,11.09a6.51,6.51,0,0,0-4.14-1.55c-2.66,0-3.89,1.55-3.89,3.13,0,2,2,2.74,4.07,3.49,2.7,1,5.65,1.91,5.65,5.29,0,2.59-2.09,4.86-5.83,4.86A10,10,0,0,1,390.47,23.94Z"/><line class="cls-10" x1="175.71" y1="51.73" x2="175.71" y2="182.26"/><line class="cls-10" x1="357.09" y1="51.73" x2="357.09" y2="182.26"/><path d="M20.77,76.83h.74V87.38h-.74Z"/><path d="M24.53,79.7h.61l.07,1.18h0a3.78,3.78,0,0,1,2.65-1.37c1.58,0,2.32,1,2.32,2.94v4.93h-.71V82.55c0-1.63-.51-2.4-1.76-2.4-.91,0-1.57.48-2.51,1.44v5.79h-.71Z"/><path d="M33.22,85.25V80.31H32v-.55l1.22-.06.09-2.23h.61V79.7h2.23v.61H33.94v5c0,1,.24,1.63,1.3,1.63a2.52,2.52,0,0,0,1-.24l.19.58a4.27,4.27,0,0,1-1.25.28C33.65,87.57,33.22,86.63,33.22,85.25Z"/><path d="M37.22,83.56c0-2.52,1.63-4,3.35-4s2.94,1.29,2.94,3.55a3.82,3.82,0,0,1,0,.58H37.94c0,1.93,1.17,3.33,2.9,3.33a3.42,3.42,0,0,0,2.06-.69l.29.54a4.25,4.25,0,0,1-2.41.75C38.81,87.57,37.22,86.07,37.22,83.56Zm5.62-.5c0-2-.88-3-2.26-3s-2.48,1.11-2.64,3Z"/><path d="M45.59,79.7h.61l.06,1.42h.05a2.63,2.63,0,0,1,2.18-1.61,1.59,1.59,0,0,1,.77.16l-.16.64a1.66,1.66,0,0,0-.71-.13c-.69,0-1.5.53-2.1,2v5.23h-.7Z"/><path d="M50.66,79.7h.61l.06,1.18h.05A3.78,3.78,0,0,1,54,79.51c1.59,0,2.32,1,2.32,2.94v4.93h-.7V82.55c0-1.63-.51-2.4-1.76-2.4-.91,0-1.57.48-2.51,1.44v5.79h-.71Z"/><path d="M58.63,85.46c0-1.7,1.54-2.51,5-2.9,0-1.16-.3-2.43-1.82-2.43a4.28,4.28,0,0,0-2.45.9L59,80.5a5.11,5.11,0,0,1,2.86-1c1.81,0,2.44,1.31,2.44,3v4.91h-.61l-.07-1h0a4.61,4.61,0,0,1-2.73,1.18A2,2,0,0,1,58.63,85.46Zm5,.26V83.11c-3.17.37-4.24,1.1-4.24,2.32A1.46,1.46,0,0,0,61,87,4.1,4.1,0,0,0,63.59,85.72Z"/><path d="M67,86.36V75.87h.7V86.45c0,.34.15.5.34.5a1.35,1.35,0,0,0,.29,0l.13.57a1.49,1.49,0,0,1-.52.08C67.35,87.57,67,87.19,67,86.36Z"/><path d="M69.86,86.52l.42-.53a3.57,3.57,0,0,0,2.45,1c1.2,0,1.82-.71,1.82-1.53s-1-1.37-1.87-1.69c-1.17-.42-2.45-.88-2.45-2.19,0-1.12.88-2,2.48-2a3.51,3.51,0,0,1,2.19.8l-.38.49a2.94,2.94,0,0,0-1.84-.69c-1.19,0-1.73.69-1.73,1.4,0,.88.9,1.21,1.81,1.55,1.2.45,2.51.85,2.51,2.35,0,1.16-.93,2.16-2.59,2.16A4.48,4.48,0,0,1,69.86,86.52Z"/><path d="M80.5,79.7h.61l.06,1.18h0a3.78,3.78,0,0,1,2.64-1.37c1.59,0,2.32,1,2.32,2.94v4.93h-.7V82.55c0-1.63-.51-2.4-1.76-2.4-.91,0-1.57.48-2.51,1.44v5.79H80.5Z"/><path d="M88.37,83.56c0-2.58,1.6-4,3.44-4s3.46,1.47,3.46,4-1.6,4-3.46,4S88.37,86.1,88.37,83.56Zm6.17,0c0-2-1.17-3.43-2.73-3.43s-2.7,1.39-2.7,3.43S90.26,87,91.81,87,94.54,85.57,94.54,83.56Z"/><path d="M97.56,85.25V80.31h-1.2v-.55l1.21-.06.1-2.23h.61V79.7h2.22v.61H98.28v5c0,1,.24,1.63,1.29,1.63a2.61,2.61,0,0,0,1-.24l.19.58a4.27,4.27,0,0,1-1.25.28C98,87.57,97.56,86.63,97.56,85.25Z"/><path d="M105.57,75.87h.71v8.49h0l3.79-4.66h.82l-2.5,3,2.92,4.64h-.79L108,83.27l-1.73,2v2.09h-.71Z"/><path d="M113,79.7h.61l.06,1.18h0a3.74,3.74,0,0,1,2.64-1.37c1.58,0,2.32,1,2.32,2.94v4.93H118V82.55c0-1.63-.52-2.4-1.77-2.4-.91,0-1.56.48-2.51,1.44v5.79H113Z"/><path d="M120.87,83.56c0-2.58,1.6-4,3.44-4s3.46,1.47,3.46,4-1.6,4-3.46,4S120.87,86.1,120.87,83.56Zm6.16,0c0-2-1.17-3.43-2.72-3.43s-2.7,1.39-2.7,3.43,1.15,3.39,2.7,3.39S127,85.57,127,83.56Z"/><path d="M129,79.7h.77l1.38,5c.19.7.36,1.36.52,2h.07c.17-.69.37-1.35.56-2l1.39-5h.85l1.39,5c.19.7.39,1.36.58,2h.06c.18-.69.37-1.35.55-2l1.36-5h.72L137,87.38H136l-1.34-4.77c-.23-.73-.37-1.44-.6-2.19H134c-.18.75-.37,1.49-.61,2.22l-1.33,4.74h-.85Z"/><path d="M141,79.7h.61l.06,1.18h.05a3.74,3.74,0,0,1,2.64-1.37c1.59,0,2.32,1,2.32,2.94v4.93H146V82.55c0-1.63-.51-2.4-1.76-2.4-.92,0-1.57.48-2.52,1.44v5.79H141Z"/><path d="M40.1,135.07H36.73v-.64h7.46v.64H40.83V145H40.1Z"/><path d="M44.53,141.16c0-2.52,1.63-4,3.34-4s3,1.29,3,3.55a2.88,2.88,0,0,1,0,.58H45.25c0,1.93,1.16,3.33,2.89,3.33a3.45,3.45,0,0,0,2.07-.69l.29.54a4.29,4.29,0,0,1-2.42.75C46.11,145.17,44.53,143.67,44.53,141.16Zm5.61-.5c0-2-.88-2.95-2.25-2.95s-2.48,1.11-2.64,2.95Z"/><path d="M51.93,144.12l.42-.53a3.58,3.58,0,0,0,2.45,1c1.2,0,1.82-.71,1.82-1.53s-1-1.37-1.87-1.69c-1.17-.42-2.45-.88-2.45-2.19,0-1.12.88-2,2.48-2a3.54,3.54,0,0,1,2.2.8l-.39.49a2.94,2.94,0,0,0-1.84-.69c-1.18,0-1.73.69-1.73,1.4,0,.88.9,1.21,1.81,1.55,1.2.45,2.51.85,2.51,2.35,0,1.16-.92,2.16-2.59,2.16A4.48,4.48,0,0,1,51.93,144.12Z"/><path d="M59.23,142.85v-4.94H58v-.55l1.22-.06.09-2.23H60v2.23h2.22v.61H60v5c0,1,.24,1.63,1.3,1.63a2.61,2.61,0,0,0,1-.24l.19.58a4.27,4.27,0,0,1-1.25.28C59.66,145.17,59.23,144.23,59.23,142.85Z"/><path d="M63.77,134.82a.64.64,0,1,1,.64.62A.61.61,0,0,1,63.77,134.82Zm.28,2.48h.7V145h-.7Z"/><path d="M67.71,137.3h.61l.06,1.18h.05a3.74,3.74,0,0,1,2.64-1.37c1.59,0,2.32,1,2.32,2.94V145h-.7v-4.83c0-1.63-.51-2.4-1.76-2.4-.92,0-1.57.48-2.52,1.44V145h-.7Z"/><path d="M75.58,146.55a2.43,2.43,0,0,1,1.14-1.86v-.06a1.35,1.35,0,0,1-.67-1.23,1.79,1.79,0,0,1,.83-1.41v-.07a2.85,2.85,0,0,1-1-2.11,2.71,2.71,0,0,1,3.71-2.51h2.61v.59H80.45a2.58,2.58,0,0,1,.85,1.94,2.69,2.69,0,0,1-4,2.38,1.4,1.4,0,0,0-.62,1.11c0,.56.32,1,1.47,1h1.65c1.73,0,2.53.54,2.53,1.76s-1.43,2.59-3.64,2.59C76.8,148.68,75.58,147.85,75.58,146.55Zm6.07-.38c0-.85-.63-1.17-1.78-1.17H78.22a4.51,4.51,0,0,1-1-.13,2,2,0,0,0-1,1.62c0,1,.93,1.61,2.56,1.61S81.65,147.13,81.65,146.17Zm-1-6.36a2,2,0,1,0-4,0,2,2,0,1,0,4,0Z"/><path d="M86.67,143.06c0-1.7,1.54-2.51,5-2.9,0-1.16-.3-2.43-1.82-2.43a4.28,4.28,0,0,0-2.45.9L87,138.1a5.11,5.11,0,0,1,2.86-1c1.81,0,2.44,1.31,2.44,3V145h-.61l-.07-1h0a4.61,4.61,0,0,1-2.73,1.18A2,2,0,0,1,86.67,143.06Zm5,.26v-2.61c-3.17.37-4.24,1.1-4.24,2.32A1.46,1.46,0,0,0,89,144.57,4.1,4.1,0,0,0,91.63,143.32Z"/><path d="M94.11,144.12l.41-.53a3.6,3.6,0,0,0,2.45,1c1.2,0,1.83-.71,1.83-1.53s-1-1.37-1.87-1.69c-1.17-.42-2.45-.88-2.45-2.19,0-1.12.88-2,2.48-2a3.53,3.53,0,0,1,2.19.8l-.38.49a3,3,0,0,0-1.84-.69c-1.19,0-1.73.69-1.73,1.4,0,.88.89,1.21,1.81,1.55,1.2.45,2.51.85,2.51,2.35,0,1.16-.93,2.16-2.59,2.16A4.48,4.48,0,0,1,94.11,144.12Z"/><path d="M104.64,142.23V137.3h.7v4.83c0,1.64.51,2.4,1.75,2.4.91,0,1.58-.48,2.48-1.56V137.3h.7V145h-.59l-.08-1.28h0a3.45,3.45,0,0,1-2.61,1.47C105.37,145.17,104.64,144.21,104.64,142.23Z"/><path d="M112.25,144.12l.42-.53a3.58,3.58,0,0,0,2.45,1c1.2,0,1.82-.71,1.82-1.53s-1-1.37-1.87-1.69c-1.17-.42-2.45-.88-2.45-2.19,0-1.12.88-2,2.48-2a3.51,3.51,0,0,1,2.19.8l-.38.49a2.94,2.94,0,0,0-1.84-.69c-1.18,0-1.73.69-1.73,1.4,0,.88.9,1.21,1.81,1.55,1.2.45,2.51.85,2.51,2.35,0,1.16-.93,2.16-2.59,2.16A4.48,4.48,0,0,1,112.25,144.12Z"/><path d="M119.05,141.16c0-2.52,1.64-4,3.35-4s2.94,1.29,2.94,3.55a3.82,3.82,0,0,1,0,.58h-5.54c0,1.93,1.17,3.33,2.9,3.33a3.47,3.47,0,0,0,2.07-.69l.28.54a4.22,4.22,0,0,1-2.41.75C120.64,145.17,119.05,143.67,119.05,141.16Zm5.62-.5c0-2-.88-2.95-2.26-2.95s-2.48,1.11-2.64,2.95Z"/><path d="M127.42,137.3H128l.06,1.42h0a2.64,2.64,0,0,1,2.18-1.61,1.57,1.57,0,0,1,.77.16l-.16.64a1.64,1.64,0,0,0-.71-.13c-.69,0-1.5.53-2.1,2V145h-.7Z"/><path d="M201.54,76.83h.73V87.38h-.73Z"/><path d="M205.3,79.7h.6l.07,1.18H206a3.74,3.74,0,0,1,2.64-1.37c1.58,0,2.32,1,2.32,2.94v4.93h-.71V82.55c0-1.63-.51-2.4-1.76-2.4-.91,0-1.57.48-2.51,1.44v5.79h-.7Z"/><path d="M214,85.25V80.31h-1.2v-.55L214,79.7l.1-2.23h.6V79.7h2.23v.61H214.7v5c0,1,.24,1.63,1.3,1.63a2.52,2.52,0,0,0,1-.24l.19.58a4.27,4.27,0,0,1-1.25.28C214.42,87.57,214,86.63,214,85.25Z"/><path d="M218,83.56c0-2.52,1.64-4,3.35-4s2.94,1.29,2.94,3.55a3.82,3.82,0,0,1,0,.58H218.7c0,1.93,1.17,3.33,2.9,3.33a3.47,3.47,0,0,0,2.07-.69l.28.54a4.22,4.22,0,0,1-2.41.75C219.57,87.57,218,86.07,218,83.56Zm5.62-.5c0-2-.88-3-2.25-3s-2.49,1.11-2.65,3Z"/><path d="M226.35,79.7H227l.06,1.42h0a2.64,2.64,0,0,1,2.18-1.61,1.57,1.57,0,0,1,.77.16l-.16.64a1.64,1.64,0,0,0-.71-.13c-.69,0-1.5.53-2.09,2v5.23h-.71Z"/><path d="M231.42,79.7H232l.07,1.18h0a3.78,3.78,0,0,1,2.65-1.37c1.58,0,2.32,1,2.32,2.94v4.93h-.71V82.55c0-1.63-.51-2.4-1.76-2.4-.91,0-1.57.48-2.51,1.44v5.79h-.71Z"/><path d="M239.39,85.46c0-1.7,1.54-2.51,5-2.9,0-1.16-.3-2.43-1.82-2.43a4.28,4.28,0,0,0-2.45.9l-.32-.53a5.14,5.14,0,0,1,2.86-1c1.81,0,2.44,1.31,2.44,3v4.91h-.61l-.06-1h0a4.61,4.61,0,0,1-2.72,1.18A2,2,0,0,1,239.39,85.46Zm5,.26V83.11c-3.17.37-4.24,1.1-4.24,2.32A1.46,1.46,0,0,0,241.74,87,4.1,4.1,0,0,0,244.35,85.72Z"/><path d="M247.79,86.36V75.87h.71V86.45c0,.34.14.5.33.5a1.3,1.3,0,0,0,.29,0l.13.57a1.47,1.47,0,0,1-.51.08C248.11,87.57,247.79,87.19,247.79,86.36Z"/><path d="M250.62,86.52,251,86a3.58,3.58,0,0,0,2.45,1c1.2,0,1.82-.71,1.82-1.53s-1-1.37-1.87-1.69c-1.17-.42-2.45-.88-2.45-2.19,0-1.12.88-2,2.48-2a3.56,3.56,0,0,1,2.2.8l-.39.49a2.94,2.94,0,0,0-1.84-.69c-1.18,0-1.73.69-1.73,1.4,0,.88.9,1.21,1.81,1.55,1.2.45,2.51.85,2.51,2.35,0,1.16-.93,2.16-2.59,2.16A4.48,4.48,0,0,1,250.62,86.52Z"/><path d="M261.26,79.7h.61l.07,1.42h0a2.65,2.65,0,0,1,2.18-1.61,1.57,1.57,0,0,1,.77.16l-.16.64a1.64,1.64,0,0,0-.71-.13c-.68,0-1.5.53-2.09,2v5.23h-.71Z"/><path d="M265.54,83.56c0-2.52,1.63-4,3.34-4s2.95,1.29,2.95,3.55a2.88,2.88,0,0,1,0,.58h-5.53c0,1.93,1.16,3.33,2.89,3.33a3.47,3.47,0,0,0,2.07-.69l.29.54a4.29,4.29,0,0,1-2.42.75C267.12,87.57,265.54,86.07,265.54,83.56Zm5.61-.5c0-2-.88-3-2.25-3s-2.48,1.11-2.64,3Z"/><path d="M273.9,86.36V75.87h.71V86.45c0,.34.14.5.33.5a1.3,1.3,0,0,0,.29,0l.13.57a1.43,1.43,0,0,1-.51.08C274.22,87.57,273.9,87.19,273.9,86.36Z"/><path d="M277.06,83.56c0-2.52,1.63-4,3.34-4s3,1.29,3,3.55a2.88,2.88,0,0,1,0,.58h-5.53c0,1.93,1.16,3.33,2.89,3.33a3.47,3.47,0,0,0,2.07-.69l.29.54a4.29,4.29,0,0,1-2.42.75C278.64,87.57,277.06,86.07,277.06,83.56Zm5.61-.5c0-2-.88-3-2.25-3s-2.48,1.11-2.64,3Z"/><path d="M284.33,79.7h.77l1.73,4.82c.24.73.53,1.5.77,2.21h.06c.26-.71.53-1.48.79-2.21l1.73-4.82h.72l-2.85,7.68h-.83Z"/><path d="M291.69,85.46c0-1.7,1.54-2.51,5-2.9,0-1.16-.31-2.43-1.83-2.43a4.31,4.31,0,0,0-2.45.9l-.32-.53a5.17,5.17,0,0,1,2.87-1c1.81,0,2.43,1.31,2.43,3v4.91h-.61l-.06-1h-.05a4.56,4.56,0,0,1-2.72,1.18A2,2,0,0,1,291.69,85.46Zm5,.26V83.11c-3.17.37-4.25,1.1-4.25,2.32A1.46,1.46,0,0,0,294.05,87,4.1,4.1,0,0,0,296.66,85.72Z"/><path d="M300.09,79.7h.61l.07,1.18h0a3.78,3.78,0,0,1,2.65-1.37c1.58,0,2.32,1,2.32,2.94v4.93h-.71V82.55c0-1.63-.51-2.4-1.76-2.4-.91,0-1.57.48-2.51,1.44v5.79h-.71Z"/><path d="M308.78,85.25V80.31h-1.2v-.55l1.22-.06.09-2.23h.61V79.7h2.23v.61H309.5v5c0,1,.24,1.63,1.3,1.63a2.52,2.52,0,0,0,1-.24l.19.58a4.27,4.27,0,0,1-1.25.28C309.21,87.57,308.78,86.63,308.78,85.25Z"/><path d="M317,85.25V80.31h-1.2v-.55L317,79.7l.1-2.23h.61V79.7h2.22v.61H317.7v5c0,1,.24,1.63,1.29,1.63a2.52,2.52,0,0,0,1-.24l.19.58a4.15,4.15,0,0,1-1.24.28C317.41,87.57,317,86.63,317,85.25Z"/><path d="M321,83.56c0-2.58,1.61-4,3.45-4s3.45,1.47,3.45,4-1.6,4-3.45,4S321,86.1,321,83.56Zm6.17,0c0-2-1.17-3.43-2.72-3.43s-2.71,1.39-2.71,3.43S322.86,87,324.42,87,327.14,85.57,327.14,83.56Z"/><path d="M222.18,104.45V99.51H221V99l1.21-.06.1-2.23h.61V98.9h2.22v.61H222.9v5c0,1,.24,1.63,1.29,1.63a2.52,2.52,0,0,0,1-.24l.2.58a4.27,4.27,0,0,1-1.25.28C222.61,106.77,222.18,105.83,222.18,104.45Z"/><path d="M226.18,102.76c0-2.52,1.63-4.05,3.34-4.05s2.95,1.29,2.95,3.55a2.88,2.88,0,0,1,0,.58H226.9c0,1.93,1.16,3.33,2.89,3.33a3.45,3.45,0,0,0,2.07-.69l.29.54a4.29,4.29,0,0,1-2.42.75C227.76,106.77,226.18,105.27,226.18,102.76Zm5.61-.5c0-2-.88-3-2.25-3s-2.48,1.11-2.64,3Z"/><path d="M233.58,105.72l.42-.53a3.58,3.58,0,0,0,2.45,1c1.2,0,1.82-.71,1.82-1.52,0-1-1-1.38-1.87-1.7-1.17-.42-2.45-.88-2.45-2.19,0-1.12.88-2.05,2.48-2.05a3.54,3.54,0,0,1,2.2.8l-.39.49a2.91,2.91,0,0,0-1.84-.69c-1.18,0-1.73.69-1.73,1.4,0,.88.9,1.21,1.81,1.55,1.2.45,2.51.85,2.51,2.35,0,1.16-.92,2.16-2.59,2.16A4.48,4.48,0,0,1,233.58,105.72Z"/><path d="M240.88,104.45V99.51h-1.2V99l1.22-.06.09-2.23h.61V98.9h2.23v.61H241.6v5c0,1,.24,1.63,1.3,1.63a2.56,2.56,0,0,0,1-.24l.19.58a4.27,4.27,0,0,1-1.25.28C241.31,106.77,240.88,105.83,240.88,104.45Z"/><path d="M245.42,96.42a.64.64,0,1,1,.64.62A.61.61,0,0,1,245.42,96.42Zm.28,2.48h.7v7.68h-.7Z"/><path d="M249.36,98.9H250l.06,1.18h.05a3.74,3.74,0,0,1,2.64-1.37c1.59,0,2.32,1,2.32,2.94v4.93h-.7v-4.83c0-1.63-.51-2.4-1.76-2.4-.92,0-1.57.48-2.52,1.44v5.79h-.7Z"/><path d="M257.23,108.15a2.43,2.43,0,0,1,1.14-1.86v-.06a1.35,1.35,0,0,1-.67-1.23,1.79,1.79,0,0,1,.83-1.41v-.07a2.85,2.85,0,0,1-1-2.11,2.71,2.71,0,0,1,3.71-2.51h2.61v.59H262.1a2.58,2.58,0,0,1,.85,1.94,2.69,2.69,0,0,1-4,2.38,1.4,1.4,0,0,0-.62,1.11c0,.56.32,1,1.47,1h1.65c1.73,0,2.53.54,2.53,1.76s-1.43,2.59-3.63,2.59C258.45,110.28,257.23,109.45,257.23,108.15Zm6.07-.38c0-.85-.63-1.17-1.78-1.17h-1.65a4.51,4.51,0,0,1-1-.13,2,2,0,0,0-1,1.62c0,1,.93,1.61,2.56,1.61S263.3,108.73,263.3,107.77Zm-1-6.36a2,2,0,1,0-4,0,2,2,0,1,0,4,0Z"/><path d="M268.86,95.07h.71v8.49h0l3.79-4.66h.82l-2.5,3,2.92,4.64h-.79l-2.54-4.11-1.73,2v2.09h-.71Z"/><path d="M276.29,98.9h.61l.06,1.18H277a3.74,3.74,0,0,1,2.64-1.37c1.58,0,2.32,1,2.32,2.94v4.93h-.7v-4.83c0-1.63-.52-2.4-1.77-2.4-.91,0-1.56.48-2.51,1.44v5.79h-.7Z"/><path d="M284.16,102.76c0-2.58,1.6-4.05,3.44-4.05s3.46,1.47,3.46,4.05-1.6,4-3.46,4S284.16,105.3,284.16,102.76Zm6.16,0c0-2-1.17-3.43-2.72-3.43s-2.7,1.39-2.7,3.43,1.15,3.39,2.7,3.39S290.32,104.77,290.32,102.76Z"/><path d="M292.27,98.9H293l1.38,5c.19.7.36,1.36.52,2.05H295c.17-.69.37-1.35.56-2.05l1.39-5h.85l1.39,5c.19.7.39,1.36.58,2.05h.06c.18-.69.37-1.35.55-2.05l1.36-5h.72l-2.21,7.68h-.93L298,101.81c-.23-.73-.37-1.44-.6-2.19h-.06c-.18.75-.37,1.49-.61,2.22l-1.33,4.74h-.85Z"/><path d="M304.32,98.9h.61l.06,1.18H305a3.74,3.74,0,0,1,2.64-1.37c1.59,0,2.32,1,2.32,2.94v4.93h-.7v-4.83c0-1.63-.51-2.4-1.76-2.4-.92,0-1.57.48-2.52,1.44v5.79h-.7Z"/><path d="M205.16,135.07H201.8v-.64h7.46v.64H205.9V145h-.74Z"/><path d="M209.59,141.16c0-2.52,1.63-4,3.35-4s2.94,1.29,2.94,3.55a3.82,3.82,0,0,1,0,.58h-5.54c0,1.93,1.17,3.33,2.9,3.33a3.42,3.42,0,0,0,2.06-.69l.29.54a4.25,4.25,0,0,1-2.41.75C211.18,145.17,209.59,143.67,209.59,141.16Zm5.62-.5c0-2-.88-2.95-2.26-2.95s-2.48,1.11-2.64,2.95Z"/><path d="M217,144.12l.42-.53a3.56,3.56,0,0,0,2.44,1c1.2,0,1.83-.71,1.83-1.53s-1-1.37-1.87-1.69c-1.17-.42-2.45-.88-2.45-2.19,0-1.12.88-2,2.48-2a3.51,3.51,0,0,1,2.19.8l-.38.49a2.94,2.94,0,0,0-1.84-.69c-1.19,0-1.73.69-1.73,1.4,0,.88.89,1.21,1.81,1.55,1.2.45,2.51.85,2.51,2.35,0,1.16-.93,2.16-2.59,2.16A4.48,4.48,0,0,1,217,144.12Z"/><path d="M224.3,142.85v-4.94h-1.2v-.55l1.21-.06.1-2.23H225v2.23h2.22v.61H225v5c0,1,.24,1.63,1.29,1.63a2.52,2.52,0,0,0,1-.24l.2.58a4.27,4.27,0,0,1-1.25.28C224.73,145.17,224.3,144.23,224.3,142.85Z"/><path d="M228.84,134.82a.64.64,0,1,1,.64.62A.61.61,0,0,1,228.84,134.82Zm.27,2.48h.71V145h-.71Z"/><path d="M232.78,137.3h.6l.07,1.18h.05a3.74,3.74,0,0,1,2.64-1.37c1.58,0,2.32,1,2.32,2.94V145h-.71v-4.83c0-1.63-.51-2.4-1.76-2.4-.91,0-1.57.48-2.51,1.44V145h-.7Z"/><path d="M240.65,146.55a2.45,2.45,0,0,1,1.13-1.86v-.06a1.37,1.37,0,0,1-.67-1.23,1.82,1.82,0,0,1,.83-1.41v-.07a2.85,2.85,0,0,1-1-2.11,2.64,2.64,0,0,1,2.71-2.7,2.71,2.71,0,0,1,1,.19h2.61v.59h-1.8a2.54,2.54,0,0,1,.85,1.94,2.68,2.68,0,0,1-4,2.38,1.39,1.39,0,0,0-.63,1.11c0,.56.32,1,1.48,1h1.65c1.72,0,2.52.54,2.52,1.76s-1.42,2.59-3.63,2.59C241.86,148.68,240.65,147.85,240.65,146.55Zm6.06-.38c0-.85-.62-1.17-1.77-1.17h-1.65a4.51,4.51,0,0,1-1-.13,2,2,0,0,0-1,1.62c0,1,.93,1.61,2.56,1.61S246.71,147.13,246.71,146.17Zm-1-6.36a2,2,0,1,0-4,0,2,2,0,1,0,4,0Z"/><path d="M251.74,143.06c0-1.7,1.53-2.51,5-2.9,0-1.16-.31-2.43-1.83-2.43a4.31,4.31,0,0,0-2.45.9l-.32-.53a5.17,5.17,0,0,1,2.87-1c1.81,0,2.43,1.31,2.43,3V145h-.61l-.06-1h-.05a4.56,4.56,0,0,1-2.72,1.18A2,2,0,0,1,251.74,143.06Zm5,.26v-2.61c-3.17.37-4.24,1.1-4.24,2.32a1.46,1.46,0,0,0,1.63,1.54A4.1,4.1,0,0,0,256.7,143.32Z"/><path d="M259.18,144.12l.41-.53a3.6,3.6,0,0,0,2.45,1c1.2,0,1.83-.71,1.83-1.53s-1-1.37-1.88-1.69c-1.17-.42-2.45-.88-2.45-2.19,0-1.12.88-2,2.48-2a3.54,3.54,0,0,1,2.2.8l-.39.49a2.91,2.91,0,0,0-1.84-.69c-1.18,0-1.73.69-1.73,1.4,0,.88.9,1.21,1.81,1.55,1.2.45,2.52.85,2.52,2.35,0,1.16-.93,2.16-2.6,2.16A4.46,4.46,0,0,1,259.18,144.12Z"/><path d="M269.7,142.23V137.3h.71v4.83c0,1.64.51,2.4,1.74,2.4.91,0,1.59-.48,2.48-1.56V137.3h.71V145h-.59l-.08-1.28h0a3.42,3.42,0,0,1-2.61,1.47C270.44,145.17,269.7,144.21,269.7,142.23Z"/><path d="M277.32,144.12l.42-.53a3.56,3.56,0,0,0,2.44,1c1.2,0,1.83-.71,1.83-1.53s-1-1.37-1.87-1.69c-1.17-.42-2.45-.88-2.45-2.19,0-1.12.88-2,2.48-2a3.53,3.53,0,0,1,2.19.8l-.38.49a3,3,0,0,0-1.84-.69c-1.19,0-1.73.69-1.73,1.4,0,.88.89,1.21,1.81,1.55,1.2.45,2.51.85,2.51,2.35,0,1.16-.93,2.16-2.59,2.16A4.48,4.48,0,0,1,277.32,144.12Z"/><path d="M284.12,141.16c0-2.52,1.63-4,3.34-4s3,1.29,3,3.55a3.82,3.82,0,0,1,0,.58h-5.54c0,1.93,1.17,3.33,2.9,3.33a3.42,3.42,0,0,0,2.06-.69l.29.54a4.29,4.29,0,0,1-2.42.75C285.7,145.17,284.12,143.67,284.12,141.16Zm5.62-.5c0-2-.88-2.95-2.26-2.95s-2.48,1.11-2.64,2.95Z"/><path d="M292.49,137.3h.61l.06,1.42h0a2.63,2.63,0,0,1,2.17-1.61,1.55,1.55,0,0,1,.77.16l-.16.64a1.59,1.59,0,0,0-.7-.13c-.69,0-1.51.53-2.1,2V145h-.7Z"/><path d="M299.67,137.3h.77l1.38,5c.19.7.36,1.36.52,2.05h.07c.17-.69.37-1.35.56-2.05l1.39-5h.85l1.39,5c.19.7.39,1.36.58,2.05h.06c.18-.69.37-1.35.55-2.05l1.36-5h.72L307.66,145h-.93l-1.34-4.77c-.23-.73-.37-1.44-.6-2.19h-.06c-.18.75-.37,1.49-.61,2.22L302.79,145h-.85Z"/><path d="M311.45,134.82a.64.64,0,1,1,.64.62A.61.61,0,0,1,311.45,134.82Zm.27,2.48h.7V145h-.7Z"/><path d="M315.56,142.85v-4.94h-1.2v-.55l1.21-.06.1-2.23h.61v2.23h2.22v.61h-2.22v5c0,1,.24,1.63,1.3,1.63a2.61,2.61,0,0,0,1-.24l.19.58a4.27,4.27,0,0,1-1.25.28C316,145.17,315.56,144.23,315.56,142.85Z"/><path d="M320.38,133.47h.7v5a3.77,3.77,0,0,1,2.66-1.39c1.58,0,2.32,1,2.32,2.94V145h-.71v-4.83c0-1.63-.51-2.4-1.76-2.4-.91,0-1.57.48-2.51,1.44V145h-.7Z"/><path d="M207.58,162.26c0-1.7,1.54-2.51,5-2.9,0-1.16-.31-2.43-1.83-2.43a4.31,4.31,0,0,0-2.45.9l-.32-.53a5.17,5.17,0,0,1,2.87-1c1.81,0,2.43,1.31,2.43,3v4.91h-.61l-.06-1h-.05a4.56,4.56,0,0,1-2.72,1.18A2,2,0,0,1,207.58,162.26Zm5,.26v-2.61c-3.17.37-4.25,1.1-4.25,2.32a1.46,1.46,0,0,0,1.64,1.54A4.1,4.1,0,0,0,212.55,162.52Z"/><path d="M215.34,160.36c0-2.58,1.64-4.05,3.51-4.05a3.18,3.18,0,0,1,2.26.94l-.42.5a2.6,2.6,0,0,0-1.82-.82c-1.57,0-2.79,1.39-2.79,3.43s1.1,3.39,2.79,3.39a3.06,3.06,0,0,0,2-.88l.37.5a3.7,3.7,0,0,1-2.45,1C216.85,164.37,215.34,162.9,215.34,160.36Z"/><path d="M222.26,160.36c0-2.58,1.63-4.05,3.5-4.05a3.18,3.18,0,0,1,2.26.94l-.42.5a2.6,2.6,0,0,0-1.82-.82c-1.57,0-2.79,1.39-2.79,3.43s1.11,3.39,2.79,3.39a3.11,3.11,0,0,0,2.05-.88l.36.5a3.7,3.7,0,0,1-2.45,1C223.76,164.37,222.26,162.9,222.26,160.36Z"/><path d="M229.17,160.36c0-2.52,1.63-4.05,3.34-4.05s3,1.29,3,3.55a3.82,3.82,0,0,1,0,.58h-5.54c0,1.93,1.17,3.33,2.89,3.33a3.45,3.45,0,0,0,2.07-.69l.29.54a4.29,4.29,0,0,1-2.42.75C230.75,164.37,229.17,162.87,229.17,160.36Zm5.62-.5c0-2-.88-3-2.26-3s-2.48,1.11-2.64,3Z"/><path d="M236.57,163.32l.42-.53a3.6,3.6,0,0,0,2.45,1c1.2,0,1.82-.71,1.82-1.53s-1-1.37-1.87-1.69c-1.17-.42-2.45-.88-2.45-2.19,0-1.13.88-2.05,2.48-2.05a3.54,3.54,0,0,1,2.2.8l-.39.49a2.91,2.91,0,0,0-1.84-.69c-1.18,0-1.73.69-1.73,1.4,0,.88.9,1.21,1.81,1.55,1.2.45,2.51.85,2.51,2.35,0,1.16-.92,2.16-2.59,2.16A4.51,4.51,0,0,1,236.57,163.32Z"/><path d="M243.06,163.32l.41-.53a3.6,3.6,0,0,0,2.45,1c1.2,0,1.83-.71,1.83-1.53s-1-1.37-1.88-1.69c-1.17-.42-2.45-.88-2.45-2.19,0-1.13.88-2.05,2.48-2.05a3.54,3.54,0,0,1,2.2.8l-.39.49a2.91,2.91,0,0,0-1.84-.69c-1.18,0-1.73.69-1.73,1.4,0,.88.9,1.21,1.81,1.55,1.2.45,2.52.85,2.52,2.35,0,1.16-.93,2.16-2.6,2.16A4.46,4.46,0,0,1,243.06,163.32Z"/><path d="M253.87,162.05v-4.94h-1.2v-.55l1.22-.06.09-2.23h.61v2.23h2.23v.61h-2.23v5c0,1,.24,1.63,1.3,1.63a2.52,2.52,0,0,0,1-.24l.19.58a4.27,4.27,0,0,1-1.25.28C254.3,164.37,253.87,163.43,253.87,162.05Z"/><path d="M257.87,160.36c0-2.58,1.6-4.05,3.44-4.05s3.46,1.47,3.46,4.05-1.6,4-3.46,4S257.87,162.9,257.87,160.36Zm6.16,0c0-2-1.16-3.43-2.72-3.43s-2.7,1.39-2.7,3.43,1.15,3.39,2.7,3.39S264,162.37,264,160.36Z"/><path d="M270,154a.64.64,0,1,1,.64.62A.61.61,0,0,1,270,154Zm.27,2.48H271v7.68h-.71Z"/><path d="M273.94,156.5h.6l.07,1.18h.05a3.74,3.74,0,0,1,2.64-1.37c1.58,0,2.32,1,2.32,2.94v4.93h-.71v-4.83c0-1.64-.51-2.4-1.76-2.4-.91,0-1.57.48-2.51,1.44v5.79h-.7Z"/><path d="M282.62,162.05v-4.94h-1.2v-.55l1.22-.06.1-2.23h.6v2.23h2.23v.61h-2.23v5c0,1,.24,1.63,1.3,1.63a2.52,2.52,0,0,0,1-.24l.19.58a4.27,4.27,0,0,1-1.25.28C283.06,164.37,282.62,163.43,282.62,162.05Z"/><path d="M286.62,160.36c0-2.52,1.64-4.05,3.35-4.05s2.94,1.29,2.94,3.55a3.82,3.82,0,0,1,0,.58h-5.54c0,1.93,1.17,3.33,2.9,3.33a3.47,3.47,0,0,0,2.07-.69l.28.54a4.25,4.25,0,0,1-2.41.75C288.21,164.37,286.62,162.87,286.62,160.36Zm5.62-.5c0-2-.88-3-2.26-3s-2.48,1.11-2.64,3Z"/><path d="M295,156.5h.61l.06,1.42h0a2.64,2.64,0,0,1,2.18-1.61,1.57,1.57,0,0,1,.77.16l-.16.64a1.64,1.64,0,0,0-.71-.13c-.69,0-1.5.53-2.09,2v5.23H295Z"/><path d="M300.06,156.5h.61l.06,1.18h0a3.78,3.78,0,0,1,2.64-1.37c1.59,0,2.32,1,2.32,2.94v4.93H305v-4.83c0-1.64-.51-2.4-1.76-2.4-.91,0-1.57.48-2.51,1.44v5.79h-.71Z"/><path d="M308,162.26c0-1.7,1.54-2.51,5-2.9,0-1.16-.3-2.43-1.82-2.43a4.28,4.28,0,0,0-2.45.9l-.32-.53a5.14,5.14,0,0,1,2.86-1c1.81,0,2.44,1.31,2.44,3v4.91h-.61l-.07-1h0a4.61,4.61,0,0,1-2.72,1.18A2,2,0,0,1,308,162.26Zm5,.26v-2.61c-3.17.37-4.24,1.1-4.24,2.32a1.46,1.46,0,0,0,1.63,1.54A4.1,4.1,0,0,0,313,162.52Z"/><path d="M316.43,163.16V152.67h.7v10.58c0,.34.15.5.34.5a1.3,1.3,0,0,0,.29,0l.13.57a1.47,1.47,0,0,1-.51.08C316.75,164.37,316.43,164,316.43,163.16Z"/><path d="M319.26,163.32l.42-.53a3.57,3.57,0,0,0,2.45,1c1.2,0,1.82-.71,1.82-1.53s-1-1.37-1.87-1.69c-1.17-.42-2.45-.88-2.45-2.19,0-1.13.88-2.05,2.48-2.05a3.51,3.51,0,0,1,2.19.8l-.38.49a2.94,2.94,0,0,0-1.84-.69c-1.18,0-1.73.69-1.73,1.4,0,.88.9,1.21,1.81,1.55,1.2.45,2.51.85,2.51,2.35,0,1.16-.93,2.16-2.59,2.16A4.48,4.48,0,0,1,319.26,163.32Z"/><path d="M382.69,76.83h.74V87.38h-.74Z"/><path d="M386.45,79.7h.61l.06,1.18h.05a3.78,3.78,0,0,1,2.64-1.37c1.59,0,2.32,1,2.32,2.94v4.93h-.7V82.55c0-1.63-.51-2.4-1.76-2.4-.91,0-1.57.48-2.51,1.44v5.79h-.71Z"/><path d="M395.14,85.25V80.31h-1.2v-.55l1.21-.06.1-2.23h.61V79.7h2.22v.61h-2.22v5c0,1,.24,1.63,1.3,1.63a2.61,2.61,0,0,0,1-.24l.19.58a4.27,4.27,0,0,1-1.25.28C395.57,87.57,395.14,86.63,395.14,85.25Z"/><path d="M399.14,83.56c0-2.52,1.63-4,3.34-4s2.95,1.29,2.95,3.55a3.82,3.82,0,0,1,0,.58h-5.54c0,1.93,1.17,3.33,2.9,3.33a3.42,3.42,0,0,0,2.06-.69l.29.54a4.29,4.29,0,0,1-2.42.75C400.72,87.57,399.14,86.07,399.14,83.56Zm5.62-.5c0-2-.88-3-2.26-3s-2.48,1.11-2.64,3Z"/><path d="M407.51,79.7h.61l.06,1.42h.05a2.63,2.63,0,0,1,2.17-1.61,1.55,1.55,0,0,1,.77.16l-.16.64a1.59,1.59,0,0,0-.7-.13c-.69,0-1.51.53-2.1,2v5.23h-.7Z"/><path d="M412.58,79.7h.61l.06,1.18h.05a3.74,3.74,0,0,1,2.64-1.37c1.58,0,2.32,1,2.32,2.94v4.93h-.7V82.55c0-1.63-.52-2.4-1.76-2.4-.92,0-1.57.48-2.52,1.44v5.79h-.7Z"/><path d="M420.55,85.46c0-1.7,1.53-2.51,5-2.9,0-1.16-.31-2.43-1.83-2.43a4.31,4.31,0,0,0-2.45.9l-.32-.53a5.17,5.17,0,0,1,2.87-1c1.81,0,2.43,1.31,2.43,3v4.91h-.61l-.06-1h-.05a4.56,4.56,0,0,1-2.72,1.18A2,2,0,0,1,420.55,85.46Zm5,.26V83.11c-3.17.37-4.24,1.1-4.24,2.32A1.46,1.46,0,0,0,422.9,87,4.1,4.1,0,0,0,425.51,85.72Z"/><path d="M429,86.36V75.87h.7V86.45c0,.34.14.5.34.5a1.35,1.35,0,0,0,.29,0l.12.57a1.4,1.4,0,0,1-.51.08C429.27,87.57,429,87.19,429,86.36Z"/><path d="M431.78,86.52l.41-.53a3.6,3.6,0,0,0,2.45,1c1.2,0,1.83-.71,1.83-1.53s-1-1.37-1.87-1.69c-1.17-.42-2.45-.88-2.45-2.19,0-1.12.88-2,2.48-2a3.53,3.53,0,0,1,2.19.8l-.38.49a3,3,0,0,0-1.84-.69c-1.19,0-1.73.69-1.73,1.4,0,.88.89,1.21,1.81,1.55,1.2.45,2.51.85,2.51,2.35,0,1.16-.93,2.16-2.59,2.16A4.48,4.48,0,0,1,431.78,86.52Z"/><path d="M442.53,80.31h-1.06v-.55l1.06-.06V78c0-1.52.69-2.31,1.91-2.31a2.9,2.9,0,0,1,1.12.26l-.2.57a2.06,2.06,0,0,0-.92-.22c-.82,0-1.2.62-1.2,1.74V79.7H445v.61h-1.77v7.07h-.71Z"/><path d="M446.51,84.63V79.7h.71v4.83c0,1.64.51,2.4,1.74,2.4.92,0,1.59-.48,2.48-1.56V79.7h.71v7.68h-.59l-.08-1.28h0a3.42,3.42,0,0,1-2.6,1.47C447.25,87.57,446.51,86.61,446.51,84.63Z"/><path d="M455.09,86.36V75.87h.7V86.45c0,.34.15.5.34.5a1.35,1.35,0,0,0,.29,0l.13.57a1.49,1.49,0,0,1-.52.08C455.41,87.57,455.09,87.19,455.09,86.36Z"/><path d="M458.88,86.36V75.87h.71V86.45c0,.34.14.5.33.5a1.3,1.3,0,0,0,.29,0l.13.57a1.47,1.47,0,0,1-.51.08C459.2,87.57,458.88,87.19,458.88,86.36Z"/><path d="M461.59,90.73l.16-.63a1.67,1.67,0,0,0,.62.13c.94,0,1.58-.86,2-2l.21-.67-3.16-7.83h.77L464,84.53c.24.64.54,1.48.83,2.15h.07c.24-.67.49-1.51.7-2.15l1.65-4.83H468l-3,8.64c-.43,1.3-1.2,2.55-2.58,2.55A2,2,0,0,1,461.59,90.73Z"/><path d="M472.85,75.87h.7v8.49h0l3.79-4.66h.82l-2.5,3,2.91,4.64h-.78l-2.55-4.11-1.73,2v2.09h-.7Z"/><path d="M480.27,79.7h.61l.07,1.18h0a3.78,3.78,0,0,1,2.65-1.37c1.58,0,2.32,1,2.32,2.94v4.93h-.71V82.55c0-1.63-.51-2.4-1.76-2.4-.91,0-1.57.48-2.51,1.44v5.79h-.71Z"/><path d="M488.15,83.56c0-2.58,1.6-4,3.44-4S495,81,495,83.56s-1.6,4-3.45,4S488.15,86.1,488.15,83.56Zm6.16,0c0-2-1.17-3.43-2.72-3.43s-2.71,1.39-2.71,3.43S490,87,491.59,87,494.31,85.57,494.31,83.56Z"/><path d="M496.26,79.7H497l1.37,5c.19.7.37,1.36.53,2H499c.18-.69.37-1.35.56-2l1.4-5h.85l1.39,5c.19.7.38,1.36.57,2h.07c.17-.69.37-1.35.54-2l1.36-5h.72l-2.21,7.68h-.92L502,82.61c-.22-.73-.37-1.44-.59-2.19h-.06c-.18.75-.37,1.49-.61,2.22l-1.33,4.74h-.85Z"/><path d="M508.31,79.7h.6l.07,1.18h0a3.74,3.74,0,0,1,2.64-1.37c1.58,0,2.32,1,2.32,2.94v4.93h-.71V82.55c0-1.63-.51-2.4-1.76-2.4-.91,0-1.57.48-2.51,1.44v5.79h-.7Z"/><path d="M386,135.07h-3.36v-.64h7.46v.64h-3.36V145H386Z"/><path d="M390.42,141.16c0-2.52,1.63-4,3.34-4s2.95,1.29,2.95,3.55a3.82,3.82,0,0,1,0,.58h-5.54c0,1.93,1.17,3.33,2.9,3.33a3.42,3.42,0,0,0,2.06-.69l.29.54a4.29,4.29,0,0,1-2.42.75C392,145.17,390.42,143.67,390.42,141.16Zm5.62-.5c0-2-.88-2.95-2.26-2.95s-2.48,1.11-2.64,2.95Z"/><path d="M397.83,144.12l.41-.53a3.6,3.6,0,0,0,2.45,1c1.2,0,1.83-.71,1.83-1.53s-1-1.37-1.88-1.69c-1.16-.42-2.45-.88-2.45-2.19,0-1.12.89-2,2.49-2a3.53,3.53,0,0,1,2.19.8l-.39.49a2.91,2.91,0,0,0-1.84-.69c-1.18,0-1.72.69-1.72,1.4,0,.88.89,1.21,1.8,1.55,1.2.45,2.52.85,2.52,2.35,0,1.16-.93,2.16-2.6,2.16A4.48,4.48,0,0,1,397.83,144.12Z"/><path d="M405.12,142.85v-4.94h-1.2v-.55l1.22-.06.1-2.23h.6v2.23h2.23v.61h-2.23v5c0,1,.24,1.63,1.3,1.63a2.52,2.52,0,0,0,1-.24l.19.58a4.27,4.27,0,0,1-1.25.28C405.56,145.17,405.12,144.23,405.12,142.85Z"/><path d="M409.67,134.82a.64.64,0,1,1,.64.62A.61.61,0,0,1,409.67,134.82Zm.27,2.48h.7V145h-.7Z"/><path d="M413.6,137.3h.61l.07,1.18h0a3.78,3.78,0,0,1,2.64-1.37c1.59,0,2.33,1,2.33,2.94V145h-.71v-4.83c0-1.63-.51-2.4-1.76-2.4-.91,0-1.57.48-2.51,1.44V145h-.71Z"/><path d="M421.48,146.55a2.45,2.45,0,0,1,1.13-1.86v-.06a1.37,1.37,0,0,1-.67-1.23,1.82,1.82,0,0,1,.83-1.41v-.07a2.85,2.85,0,0,1-1-2.11,2.71,2.71,0,0,1,3.71-2.51h2.61v.59h-1.79a2.54,2.54,0,0,1,.85,1.94,2.68,2.68,0,0,1-3.95,2.38,1.39,1.39,0,0,0-.63,1.11c0,.56.32,1,1.47,1h1.65c1.73,0,2.53.54,2.53,1.76s-1.42,2.59-3.63,2.59C422.69,148.68,421.48,147.85,421.48,146.55Zm6.06-.38c0-.85-.62-1.17-1.78-1.17h-1.64a4.51,4.51,0,0,1-1-.13,2,2,0,0,0-1,1.62c0,1,.93,1.61,2.56,1.61S427.54,147.13,427.54,146.17Zm-1-6.36a2,2,0,1,0-4,0,2,2,0,1,0,4,0Z"/><path d="M432.56,143.06c0-1.7,1.54-2.51,5-2.9,0-1.16-.31-2.43-1.83-2.43a4.31,4.31,0,0,0-2.45.9l-.32-.53a5.17,5.17,0,0,1,2.87-1c1.8,0,2.43,1.31,2.43,3V145h-.61l-.06-1h-.05a4.59,4.59,0,0,1-2.72,1.18A2,2,0,0,1,432.56,143.06Zm5,.26v-2.61c-3.17.37-4.25,1.1-4.25,2.32a1.46,1.46,0,0,0,1.64,1.54A4.12,4.12,0,0,0,437.53,143.32Z"/><path d="M440,144.12l.42-.53a3.57,3.57,0,0,0,2.45,1c1.2,0,1.82-.71,1.82-1.53s-1-1.37-1.87-1.69c-1.17-.42-2.45-.88-2.45-2.19,0-1.12.88-2,2.48-2a3.51,3.51,0,0,1,2.19.8l-.38.49a2.94,2.94,0,0,0-1.84-.69c-1.18,0-1.73.69-1.73,1.4,0,.88.9,1.21,1.81,1.55,1.2.45,2.51.85,2.51,2.35,0,1.16-.93,2.16-2.59,2.16A4.48,4.48,0,0,1,440,144.12Z"/><path d="M450,141.16c0-2.48,1.59-4,3.41-4a3.55,3.55,0,0,1,2.32.94l0-1.41v-3.17h.71V145h-.61l-.07-1h0a3.64,3.64,0,0,1-2.5,1.18C451.25,145.17,450,143.75,450,141.16Zm5.7,2.13v-4.57a3.26,3.26,0,0,0-2.24-1c-1.54,0-2.71,1.49-2.71,3.43s.9,3.39,2.53,3.39A3.5,3.5,0,0,0,455.7,143.29Z"/><path d="M458.71,141.16c0-2.52,1.63-4,3.34-4s2.95,1.29,2.95,3.55a2.88,2.88,0,0,1,0,.58h-5.53c0,1.93,1.17,3.33,2.89,3.33a3.45,3.45,0,0,0,2.07-.69l.29.54a4.29,4.29,0,0,1-2.42.75C460.29,145.17,458.71,143.67,458.71,141.16Zm5.61-.5c0-2-.88-2.95-2.25-2.95s-2.48,1.11-2.64,2.95Z"/><path d="M466,137.3h.76l1.73,4.82c.24.73.53,1.5.77,2.21h.07l.78-2.21,1.73-4.82h.72L469.7,145h-.83Z"/><path d="M473.57,141.16c0-2.52,1.63-4,3.35-4s2.94,1.29,2.94,3.55a3.82,3.82,0,0,1,0,.58h-5.54c0,1.93,1.17,3.33,2.9,3.33a3.42,3.42,0,0,0,2.06-.69l.29.54a4.29,4.29,0,0,1-2.42.75C475.15,145.17,473.57,143.67,473.57,141.16Zm5.62-.5c0-2-.88-2.95-2.26-2.95s-2.48,1.11-2.64,2.95Z"/><path d="M481.94,144V133.47h.7v10.58c0,.34.15.5.34.5a1.35,1.35,0,0,0,.29,0l.13.57a1.49,1.49,0,0,1-.52.08C482.26,145.17,481.94,144.79,481.94,144Z"/><path d="M485.09,141.16c0-2.58,1.6-4,3.44-4s3.46,1.47,3.46,4-1.6,4-3.46,4S485.09,143.7,485.09,141.16Zm6.16,0c0-2-1.17-3.43-2.72-3.43s-2.7,1.39-2.7,3.43,1.15,3.39,2.7,3.39S491.25,143.17,491.25,141.16Z"/><path d="M494.29,137.3h.61l.06,1H495a4.49,4.49,0,0,1,2.61-1.15c2.05,0,3.07,1.53,3.07,3.92,0,2.61-1.58,4.14-3.39,4.14a4.08,4.08,0,0,1-2.31-.94v4.23h-.7Zm5.65,3.73c0-1.89-.67-3.3-2.43-3.3A4.07,4.07,0,0,0,495,139v4.56a3.76,3.76,0,0,0,2.28,1C498.82,144.55,499.94,143.11,499.94,141Z"/><path d="M502.35,141.16c0-2.52,1.64-4,3.35-4s2.94,1.29,2.94,3.55a3.82,3.82,0,0,1,0,.58h-5.54c0,1.93,1.17,3.33,2.9,3.33a3.47,3.47,0,0,0,2.07-.69l.28.54a4.22,4.22,0,0,1-2.41.75C503.94,145.17,502.35,143.67,502.35,141.16Zm5.62-.5c0-2-.88-2.95-2.25-2.95s-2.49,1.11-2.65,2.95Z"/><path d="M510.72,137.3h.61l.06,1.42h.05a2.64,2.64,0,0,1,2.18-1.61,1.57,1.57,0,0,1,.77.16l-.16.64a1.64,1.64,0,0,0-.71-.13c-.69,0-1.5.53-2.09,2V145h-.71Z"/></g></g></svg>